
<svg version="1.2" xmlns="http://www.w3.org/2000/svg" viewBox="0 0 1830 437" width="376" height="90">
	<title>Parisien-Logo-Blue logo-svg</title>
	<style>
		.s0 { fill: #334072 } 
	</style>
	<path id="Layer" fill-rule="evenodd" class="s0" d="m1147.6 427.2v-12.8h373l3.1-4.1c4-5.1 7.3-10.3 10-15.4v19.5h10.2c-1.8 2.9-3.9 5.8-6.1 8.7l-3.1 4.1zm-0.2-365.2v-12.8h8.2c5.4 0 14.7 5.7 14.7 11.5v1.3zm379.2-29.3h3.4l3.1 3.3 0.4 0.4v10.4q-2.4-7.3-6.9-14.1zm21 26.9v-10.4h8.1c5.4 0 14.6 5.7 14.6 11.5v1.3h-22.1c1.4 5.6 1.7 11.5 0.7 17.8-1.8 11.6-7.6 21.9-13.5 31.9-7.5 12.9-16.7 26.6-8.4 41.4l9.2 16.4-18.8-0.9c-14.1-0.7-29.9-4-37.1-17.5 7 3.2 15.3 4.4 23 4.7l18.8 0.9-9.2-16.4c-8.3-14.8 0.9-28.5 8.4-41.4 5.8-10 11.7-20.3 13.5-31.9 1-6.3 0.7-12.2-0.7-17.8h8.9c1.9 3.3 3.4 6.8 4.6 10.4zm93.1-26.9h7.6l99.2 193.7v14.8zm73.3 29.3v-12.8h18.6c5.4 0 14.7 5.7 14.7 11.5v1.3zm101.2-29.3h14.1v29.3h-23.1c-5.1 0-8.8 4.7-9.7 9.4v355.9h-30.8l-6.5-12.8h23.2v-355.9c0.9-4.7 4.5-9.4 9.7-9.4h23.1zm-195.6 124v228.5h-4.3c-5.8 0-9.9-6.1-9.9-11.5v-244.5zm18.9 241.3h14.1v29.2h-104.8v-12.8h90.7zm-365.5-336c-5.1 0-8.8 4.7-9.7 9.4v313.9h-4.2c-5.8 0-9.9-6.1-9.9-11.5v-315.2c0.9-4.7 4.5-9.4 9.7-9.4h43.7c5.4 0 14.6 5.7 14.6 11.5v1.3zm193.5 4.3h-60l0.1 121.1c-4.8 2.9-9.6 6-14.1 9.4l-0.1-143.2h65.8c4 3.8 6.7 8 8.3 12.7zm37.9 127.3c8 5.3 15.4 13 21.9 23.6l3.4 5.5-18.1 29.2c-1.2 0.4-2.4 0.9-3.6 1.4l-9.6-15.6 17.2-27.7-3.4-5.5c-2.5-4.1-5.1-7.7-7.8-10.9zm-22.7 27.1c-2-0.9-4.2-1.6-6.5-1.9-19.4-3.1-43.4 13.7-57.3 25.7l-11.4 9.8 0.1 126.5h-14.1l-0.1-139.3 11.4-9.8c13.9-12 37.9-28.8 57.3-25.7 9.1 1.5 15.7 7.3 20.6 14.7zm84.8 30.7l-26.6 29.1c-4.5 4.9-7.5 10.2-7.6 16.9-0.1 7 2.9 14.7 5.7 21.1 4.1 9.4 8.8 18.4 12.3 28 5 13.8 6.6 26.5 4.8 38.7h-17.3c5.7-16 5.2-32.7-1.6-51.4-3.5-9.7-8.2-18.6-12.3-28-2.8-6.3-5.8-14-5.7-21.1 0.1-6.7 3.2-12 7.6-16.9l4.2-4.6zm-1443.5 31.6v102.3h-4.3c-5.8 0-9.9-6.1-9.9-11.5v-103.6c83.1-31.8 167.8-78.5 167.1-179.4v-0.3c-1.1-28.9-9.2-51-23.2-67.1 22.7 16.2 36 42.3 37.3 79.8v0.3c0.3 50.4-20.7 87.3-52.1 115.6-9.5 2.5-18.6 6.1-27.2 11.1-11.7 6.8-21.9 15.9-29.2 26.9-18.7 9.8-38.7 18.3-58.5 25.9zm38.6 115h14.1v29.2h-171.6v-12.8h157.5zm-133.7-365.3c-1.3-0.4-2.5-0.7-3.8-0.7h-20v-12.8h5.9c6.4 0.1 14.2 6.7 17.9 13.5zm981.8 91.5c7.1 11.6 17.3 22.7 26.8 32.5 12.2 12.5 25.1 24.4 37.9 36.3 20.1 18.6 42.4 38.6 59.3 60.2 14.5 18.5 25.2 39.3 26 63.2 0.9 25.2-8.5 49.2-23.9 68.7h-2.4v2.9c-14.9 17.7-34.8 31.5-56.3 38.6-48.9 16.2-112.2 6.9-148.7-31.1l-0.4-0.4-0.6-0.7c37.3 28.2 92.1 33.9 135.6 19.5 45.9-15.2 84.4-60.3 82.7-110.1-0.8-23.9-11.5-44.7-26-63.2-16.9-21.5-39.2-41.5-59.3-60.2-12.8-11.9-25.7-23.8-37.9-36.3-9.5-9.8-19.7-20.9-26.8-32.5-5.1-8.4-8.5-17.2-9.6-27-0.1-12.6 3.5-25.5 13.2-34 6.7-5.9 16.1-9.2 25-7 4.1 1 7.8 3.1 10.7 6.2 1.9 1.9 3.3 4.3 4.3 6.8l-0.9-0.2c-8.9-2.2-18.3 1.1-25 7-9.7 8.6-13.3 21.4-13.2 34 1.1 9.7 4.5 18.6 9.5 26.8zm-128.8 130l-1.2 1.1 1.2 0.7v129.2h-4.2c-5.9 0-9.9-6.1-9.9-11.5v-315.1c0.9-4.7 4.6-9.4 9.7-9.4h23.1v-16.5h14.1v29.2h-23.1c-5.2 0-8.8 4.7-9.7 9.4zm95.8-4.1c16.2 9.7 25.9 27.8 23.8 50.8-2.1 22.8-20.6 40-25.9 60.8-1.4 5.4-1.3 10.8 1.2 15.9l0.4 0.7c-6.5-3.4-11.7-7.8-14.5-13.4-2.5-5.1-2.6-10.4-1.2-15.9 5.2-20.8 23.7-38 25.9-60.8 1.4-15.2-2.3-28.2-9.7-38.1zm139.4-224.9l3.4 0.1 8.4 0.2 1.6 8.2c4.1 21.3 4.1 41.1-0.6 62.2-3 13.5-8.3 27.3-10.3 40.8-1.1 7.1-0.9 13.9 0.7 20.9l3.9 16.8-16.7-4.3c-16.7-4.3-32.7-10.8-42.4-23.9 8.4 5.2 18.2 8.6 28.3 11.2l16.7 4.2-3.9-16.8c-1.7-7.1-1.8-13.8-0.7-20.9 2-13.5 7.3-27.3 10.3-40.8 4.4-19.6 4.7-38.2 1.3-57.9zm-217.1 245.8l-5.2-3 2.5-2.4c0.8 0.9 1.5 1.9 2 3.1 0.3 0.8 0.5 1.5 0.7 2.3zm14.9 127v29.2h-111.8v-12.8h97.6v-16.4zm-148.9-336v-12.8h8.2c5.4 0 14.6 5.7 14.6 11.5v1.3zm-53.6-12.7c18.1 12.1 29.3 31.8 30.3 61.8v0.3c0.3 53.5-30.7 86.3-72.3 110-8.7-1.3-15.7-4-22.5-8.2 45.7-24 81-57.5 80.7-114.5v-0.3c-0.7-21.3-6.5-37.3-16.2-49.1zm24.7 185.1h3.8l11.4-0.1-0.9 11.3c-1.1 14.4-3.8 36.3-5.8 59.1l-2.9 2.8c-2.9 2.8-5.9 5.7-8.8 8.5l-4.3 4.1c1.4-31 5.8-65.3 7.5-85.7zm27.2 78.8l7.2 7.3c6.6 6.6 12.6 14.5 17.5 22.9v71.1h5.5c-2.2 3.4-5 6.6-8.3 9.4-23.5 20.1-62.4 14.3-84.6-4.9-2.8-2.4-5.4-5.1-7.7-7.9 22.7 15.2 56.8 18.3 78.1 0 15.2-13 18.2-32.3 14.4-51.1-3.3-16.5-12-32.8-23.1-45.9zm-108.7-51.2c-10.8-4.5-20.5-11.1-28.9-19.9-6.1 2.5-12.3 4.9-18.4 7.3v135.9h-4.2c-5.8 0-9.9-6.1-9.9-11.5v-137.2c6.2-2.4 12.3-4.8 18.4-7.3 12.1 12.7 26.8 20.7 43.7 24.6-0.2 2.6-0.5 5.3-0.7 8.1zm-28.4 136h14.1v29.2h-238.9v-12.8h224.8zm-306.6-130.2l-29.4 117.5h-9.2c-5.3 0-6.3-7.5-5.3-11.4l29.8-118.9c26.8 8.2 51 25 71.6 45.2-17.3-14.3-36.5-26-57.5-32.4zm-0.3 130.2v29.2h-110v-12.8h95.9v-16.4zm-77-125.4c-10.6 6.2-20.1 15.7-23.1 27.9-2.9 12 1.2 23.5 8.4 33.2l10.3 13.8-27.7 20.6-10.3-13.8-0.8-1.1 24.7-18.3-10.3-13.8c-7.2-9.6-11.4-21.2-8.4-33.2 3.1-12.2 12.5-21.8 23.1-27.9 12.7-7.4 27.7-10.5 42.4-10.5l-3.6 14.3c-8.7 1.6-17.1 4.5-24.7 8.8zm204.1-239.9h14.1v29.3h-20.1c-7.5 0-6.5 12-5.3 16.9l2.5 10.1 70.1 280c0.5 2.1 1.7 6.4 3.3 11.1-1.8 1.7-4 3.1-6.1 4-4.9-5.2-10-22.8-11.3-27.8l-70.1-280-2.5-10.1c-1.2-4.9-2.2-16.9 5.3-16.9h20.1zm63.8 29.3h-18.7v-12.8h4.6c6.1 0 18.4 1.8 18.4 10.1v2.9c-1.6-0.1-3.1-0.2-4.3-0.2zm232.2 281.2c-0.3 17.1 0.6 32.6 3.9 43.2-4.4 2.1-9.9-0.7-13.5-10.8-4.1-11.5-5-29.5-4.4-49.4l4 4.4c3.4 3.8 6.9 8 10 12.6zm-585.2-307.4h-34.1v185.4q-6.7 3.5-14.1 6.3v-204.5h34.1c8.5 1.9 16.3 5.5 23.1 11 3.5 2.8 6.6 6 9.4 9.4-5.7-3.6-11.8-6.2-18.4-7.6zm484.1 34.6c-3.4-1.8-7-3.2-10.9-4h-23.1v122.8c-4.5 3.1-9.2 6-14.1 8.5v-144.1h23.1c7.4 1.6 14 5 19.4 10.3 2.1 2 4 4.1 5.6 6.5zm-284.7 49.8l-26.8 106.9c-5.2-2.1-10.5-4-15.9-5.6l34-135.8z"/>
	<path id="Layer" fill-rule="evenodd" class="s0" d="m166.5 0.5c61.2 1.9 96.8 29.4 99 90.3 0.6 92.7-74.9 137.7-167.1 172.2v110.7c0 10.7 8.2 21.9 20.3 21.9h32.4v8.3h-150.7v-8.3h15c11.6 0 25.1-10.4 25.1-21.9v-333.6c0-13.8-15.5-31.3-30.5-31.3h-9.6v-8.3zm-95.7 271.9c3.8-2.3 5.4-5.9 4.7-10.6l-0.2-1.5-1.3 0.8c-2.4 1.4-4 3.2-4.9 5.4l-0.1-0.3-0.4-0.8-1-1.5-1.8-1.8-1.5-1-1.3-0.8-0.2 1.5-0.1 0.5v2.8l0.6 2.4 0.8 1.6 0.4 0.6 2.1 2.1 0.4 0.3 0.8 0.4c1.3 0.7 2.2 0.7 3-0.1zm-3.2-140.4l-0.4 0.2-0.4 0.3-2.1 2.1-0.4 0.6-0.6 1.2-0.6 2.4v3.2l0.1 0.5 0.2 1.5 1.3-0.8 0.3-0.2 0.2-0.3 0.9-0.6 1.8-1.8 1-1.5 0.4-0.8 0.1-0.3c1 2.2 2.5 4 4.9 5.4l1.3 0.8 0.2-1.5c0.7-4.7-0.8-8.3-4.7-10.6-1.2-0.7-2.1-0.7-3.3 0zm12.4 70.2l-0.9-0.8c-3.5-3.2-6.4-6.9-8.6-11l-0.9-1.7-0.9 1.7c-2.2 4.2-5.1 7.8-8.6 11l-0.9 0.8 0.9 0.8c3.5 3.2 6.4 6.9 8.6 11l0.9 1.7 0.9-1.7c2.2-4.2 5.1-7.8 8.6-11zm-12.9-84.5h4.7c-1.6-117.7-3-117.7-4.7 0zm163.1-18c0 2.2 1.8 4 4 4 2.2 0 4-1.8 4-4 0-2.2-1.8-4-4-4-2.2 0-3.9 1.8-4 4zm-24.1-72.8c20.4 15.6 25.4 38.8 25.9 64.8v1h4.6v-1.1c-0.5-27.2-7.3-50.7-29.8-66-8.9-6.1-10.6-6.4-0.7 1.3zm-32.3 188.4c36-27.4 58-60.7 62.8-107.2l0.1-1.2h-4.6l-0.1 0.9c-5.2 44.5-25 79.2-59.4 106.3-6.9 5.4-5.6 6.2 1.2 1.2zm-105.3 2.9l-1.4 21.5h4.8l-1.4-21.5zm-3 61.4c0 2.2 1.8 4 4 4 2.2 0 4-1.8 4-4 0-2.2-1.8-4-4-4-2.2 0-4 1.8-4 4zm8.9-24.1l1.3 0.9 0.3-1.6c2.7-15.2-15.8-15.2-13.1 0l0.3 1.6 1.3-0.9c0.7-0.5 1.3-1 1.9-1.5 0.4 1.9 1.2 3.6 2.2 5.3l0.9 1.4 0.9-1.4c1-1.7 1.7-3.4 2.1-5.3 0.6 0.5 1.3 1 1.9 1.5zm-2.5 31.3h-4.7c1.6 117.7 3 117.7 4.7 0zm-2.4-92.5c0.5 3.4-1.6 4.9-3.6 7.9 2 3.4 4.5 4.9 3.6 7.9-1.8-2.9-4-5.5-6.4-7.9 2.4-2.3 4.6-5 6.4-7.9zm1-8l1.4-21.5h-4.8l1.4 21.5zm-5-61.4c0 2.2 1.8 4 4 4 2.2 0 4-1.8 4-4 0-2.2-1.8-4-4-4-2.2 0-4 1.8-4 4zm-0.9 24.1l-1.3-0.9-0.3 1.6c-2.7 15.2 15.8 15.2 13.1 0l-0.3-1.6-1.3 0.9c-0.7 0.5-1.3 1-1.9 1.5-0.3-1.9-1.1-3.6-2.1-5.3l-0.9-1.4-0.9 1.4c-1.1 1.7-1.8 3.4-2.2 5.3-0.6-0.5-1.3-1-1.9-1.5zm79.5-136.4h-45.7v229.3c130.6-36 134.4-211.5 45.7-229.3z"/>
	<path id="Layer" fill-rule="evenodd" class="s0" d="m426.3 38.8c-14.3 0-18.4 14.8-15.8 28l73.1 292c3.8 15.2 11.2 36.9 22.8 36.9h15v8.3h-123.7v-8.3h13.7c12.1 0 21.2-14.6 18.4-25.9l-8.3-33.1c-30-42.4-72.4-83.1-123.6-94.5l-32.3 129.1c-2.8 11.3 3.3 24.3 15.5 24.3h13.7v8.3h-89.1v-8.3h15.1c11.5 0 29.2-20.6 32.9-35l30.3-120.8c-1.2-0.1-2.4-0.3-3.7-0.4-19.5-1.6-40.1 1.5-57.2 11.5-13.1 7.6-24.3 19.4-28 34.4-3.7 15.1 1 29.7 10.1 42l4.1 5.5-10.9 8.1-4-5.5c-11.5-15.5-17.1-34.2-12.4-53.3 4.6-18.7 18-33.4 34.3-42.9 19.6-11.3 42.8-15.1 65.1-13.3 2 0.2 3.9 0.4 5.9 0.6l49.1-196.1h99.7v8.4zm-15.4 29.9l-0.3-1.4q0.1 0.7 0.3 1.4zm-0.3-1.4q-0.1-0.2-0.1-0.5l-0.2-0.7zm25.5 218.5c1.3 0.4 2.2 0.2 3.2-0.8 3.2-3.1 3.8-7 2-11.4l-0.6-1.4-1.1 1.1c-1.9 1.9-3 4.1-3.4 6.4l-2-2-1.8-1.2-1.2-0.6-1.2-0.3-1.5-0.4 0.2 1.5 0.3 1.5 0.4 1.6 1.2 2.4 0.2 0.3 1.8 1.8 0.6 0.4 2 1 0.4 0.1zm-22.8 18.1l-65.4-261.2-46.7 186.3c44.3 10 82.3 39.8 112.1 74.9zm16.8-88.2l0.6-1-1-0.5c-4.2-2.2-7.9-5.1-11-8.5l-1.3-1.4-0.5 1.9c-1.2 4.6-3.1 8.8-5.7 12.7l-0.6 1 1 0.5c4.2 2.2 7.9 5.1 11 8.5l1.3 1.4 0.5-1.9c1.1-4.6 3.1-8.8 5.7-12.7zm-27.7-81c-14.8-56-21.4-79.1-22.3-79.9-1-0.7 4.1 22.8 17.8 81zm23.1 97.8l-1.9 0.5 3.9 21.2 4.6-1.2zm12.9 55.9c-2.1 0.5-3.4 2.7-2.9 4.9 0.5 2.1 2.7 3.5 4.8 2.9 2.1-0.5 3.4-2.7 2.9-4.9-0.5-2.1-2.6-3.4-4.8-2.9zm-2.3-21.7c0.7 0.4 1.4 0.7 2.2 1l1.5 0.6-0.1-1.6c-1.1-15.4-19-10.9-12.7 3.2l0.7 1.5 1.1-1.2c0.5-0.6 1-1.2 1.5-1.9 0.8 1.7 2 3.3 3.4 4.6l1.2 1.2 0.5-1.6c0.5-2 0.8-3.9 0.7-5.8zm2.8 33.1c15.2 57.3 21.9 80.4 22.5 79.8 0.6-0.6-4.6-24-18-81zm-21.8-81.8c2.8 2.8 5.6 3.6 5.5 6.8-2.5-2.3-5.2-4.4-8.2-6.1 1.8-2.9 3.2-6 4.3-9.2 1.3 3.2-0.4 5.2-1.6 8.5zm-1.3-16l1.9-0.5-3.8-21.2-4.6 1.2zm-14.9-63.7c-2.1 0.5-3.4 2.7-2.9 4.9 0.5 2.1 2.7 3.5 4.8 2.9 2.1-0.5 3.4-2.7 2.9-4.9-0.5-2.1-2.7-3.5-4.8-2.9zm4.2 29.5c-0.7-0.4-1.4-0.7-2.2-1l-1.5-0.6 0.1 1.6c1.1 15.4 19 10.9 12.7-3.2l-0.7-1.5-1.1 1.2c-0.5 0.6-1 1.2-1.5 1.9-0.8-1.7-2-3.3-3.4-4.6l-1.2-1.2-0.5 1.6c-0.5 2-0.8 3.9-0.7 5.8zm-3.2-18.5l-1.2 1.2-0.2 0.3-1 2-0.6 2.4v2l0.6 2.4 0.4 1 0.6 1.4 2.6-2.6 1-1.5 0.4-0.8 0.6-2.4v-0.3c1.4 1.9 3.4 3.3 6 4.1l1.5 0.4-0.2-1.5c-0.5-4.7-2.9-7.9-7.2-9.1-1.4-0.2-2.3 0-3.3 1z"/>
	<path id="Layer" fill-rule="evenodd" class="s0" d="m582.7 30.2h54.5v0.1c44.8 2.1 78.4 17.7 80 68.1 0.3 57.8-39.4 89.2-90 112.6 12.7 11.2 25.5 19.4 46.9 21.2 17.2-0.1 34.5-0.2 51.7-0.3-2.9 36.6-14.5 114.5-2.9 147.1 11.6 32.4 46.4 19 39.7-15.7-2.3-11.9-9.5-25.6-22.5-39.8 2.9-2.8 5.9-5.7 8.8-8.5 12.8 12.9 22.7 30.3 26.1 47 11 54.5-50.4 63.5-81.8 36.3-25.4-22.1-34.9-70.6-26.6-153-20.6-2.6-38.3-11.4-52.1-28.5-10.3 4.4-21 8.6-31.8 12.6v144.3c0 10.7 8.2 21.9 20.3 21.9h12.7v8.3h-127.7v-8.3h11.7c11.6 0 25.1-10.4 25.1-21.9v-314.4c0-13.9-13.8-20.6-28.8-20.6h-8.2v-8.3h94.9zm119.1 342c-10.7-34-7.9-85.1-5.5-118.8l0.1-1.1-4.6-0.1-0.1 1c-1.8 31.1-5.4 88.8 8.5 119.8 4.1 9.1 4.7 9.3 1.6-0.8zm-16.6-265.9c0 2.1 1.7 3.8 3.8 3.8 2.1 0 3.8-1.7 3.8-3.8 0-2.1-1.7-3.8-3.8-3.8-2.1 0-3.8 1.8-3.8 3.8zm-17.6-53c11.1 13.7 17.2 27.1 19.1 45.5l0.1 0.9h4.5l-0.1-1.1c-1.6-18.6-9.9-33.2-22.3-46.3-5.2-5.6-6.4-5.3-1.3 1zm-27.9 139.7c27-20.1 45.5-44.7 51.6-78.8l0.2-1.2h-4.5l-0.2 0.8c-6.4 32.5-22.9 57.7-48.2 77.9-6.5 5.2-5.3 6 1.1 1.3zm-84 94.4c3.8-2.3 5.4-5.9 4.7-10.6l-0.2-1.5-1.3 0.8c-2.4 1.4-4 3.2-4.9 5.4l-0.1-0.3-0.4-0.8-1-1.5-1.8-1.8-1.5-1-1.3-0.8-0.2 1.5-0.1 0.5v3.2l0.5 2 0.8 1.6 0.4 0.6 2.1 2.1 0.4 0.3 0.8 0.4c1.2 0.7 2.1 0.7 3.1-0.1zm-3.2-140.4l-0.8 0.4-2.1 2.1-0.4 0.6-0.8 1.6-0.5 2v3.1l0.1 0.5 0.2 1.5 1.3-0.8 1.5-1 1.7-1.7 1-1.5 0.4-0.8 0.1-0.3c1 2.2 2.5 4 4.9 5.4l1.3 0.8 0.2-1.5c0.7-4.7-0.8-8.3-4.7-10.6-1.2-0.7-2.1-0.7-3.3 0zm12.2 70.2l-0.9-0.8c-3.5-3.2-6.4-6.9-8.6-11l-0.9-1.7-0.9 1.7c-2.2 4.2-5.1 7.8-8.6 11l-0.9 0.8 0.9 0.8c3.5 3.2 6.4 6.9 8.6 11l0.9 1.7 0.9-1.7c2.2-4.2 5.1-7.8 8.6-11zm-10.5-162.4c-0.7-1-1.5 18.1-2.3 77.9h4.7c-0.8-57.9-1.6-77-2.4-77.9zm-1 178.4l-1.4 21.5h4.8l-1.4-21.5zm-3 61.4c0 2.2 1.8 4 4 4 2.2 0 4-1.8 4-4 0-2.2-1.8-4-4-4-2.2 0-3.9 1.8-4 4zm8.9-24.1l1.3 0.9 0.3-1.6c2.7-15.2-15.8-15.2-13.1 0l0.3 1.6 1.3-0.9c0.7-0.5 1.3-1 1.9-1.5 0.4 1.9 1.2 3.6 2.2 5.3l0.9 1.4 0.9-1.4c1.1-1.7 1.8-3.4 2.2-5.3q0.9 0.7 1.8 1.5zm-4.8 109.2c0.7-0.4 1.5-19.4 2.3-77.9h-4.7c0.8 59.3 1.6 78.3 2.4 77.9zm-0.1-170.4c0.5 3.3-1.6 4.9-3.6 7.9 2 3.3 4.5 4.9 3.6 7.9-1.8-2.9-4-5.5-6.4-7.9 2.5-2.4 4.6-5 6.4-7.9zm1.1-8l1.4-21.5h-4.8l1.4 21.5zm-5.1-61.5c0 2.2 1.8 4 4 4 2.2 0 4-1.8 4-4 0-2.2-1.8-4-4-4-2.2 0-3.9 1.9-4 4zm-0.8 24.2l-1.3-0.9-0.3 1.6c-2.7 15.2 15.8 15.2 13.1 0l-0.3-1.6-1.3 0.9c-0.7 0.5-1.3 1-1.9 1.5-0.4-1.9-1.2-3.6-2.2-5.3l-0.9-1.4-0.9 1.4c-1.1 1.7-1.8 3.4-2.2 5.3q-0.9-0.9-1.8-1.5zm68-120.9h-34.7v170.3c95.2-33.3 101.9-156.8 34.7-170.3z"/>
	<path id="Layer" fill-rule="evenodd" class="s0" d="m856.3 30.5h32.8v8.3h-12.7c-11 0-18.8 9.3-20.1 19v316c0 10.7 8.2 21.9 20.3 21.9h12.7v8.3h-90.8v-343.4h-0.2c0-11.5-13.5-21.9-25.1-21.9h-11.8v-8.3h94.9zm-27.5 256.9c3.8-2.3 5.4-5.9 4.7-10.6l-0.2-1.5-1.3 0.8c-2.4 1.4-4 3.2-4.9 5.4l-0.1-0.3-0.4-0.8-1-1.5-1.8-1.8-1.5-1-1.3-0.8-0.2 1.5-0.1 0.5v3.2l0.5 2 0.8 1.6 0.4 0.6 2.1 2.1 0.4 0.3 0.8 0.4c1.2 0.7 2.1 0.7 3.1-0.1zm-3.2-140.5l-0.4 0.2-0.4 0.3-2.1 2.1-0.4 0.6-0.8 1.6-0.6 2.4v2.8l0.1 0.5 0.2 1.5 1.3-0.8 1.5-1 1.8-1.8 1-1.5 0.4-0.8 0.1-0.3c1 2.2 2.5 4 4.9 5.4l1.3 0.8 0.2-1.5c0.7-4.7-0.8-8.3-4.7-10.6-1.2-0.7-2.1-0.7-3.3 0zm12.2 70.3l-0.9-0.8c-3.5-3.2-6.4-6.9-8.6-11l-0.9-1.7-0.9 1.7c-2.2 4.2-5.1 7.8-8.6 11l-0.9 0.8 0.9 0.8c3.5 3.2 6.4 6.9 8.6 11l0.9 1.7 0.9-1.7c2.2-4.2 5.1-7.8 8.6-11zm-10.5-162.4c-0.7-1-1.5 18.1-2.3 77.9h4.7c-0.8-57.9-1.6-77-2.4-77.9zm-0.9 178.4l-1.4 21.5h4.7l-1.4-21.5zm-3.1 61.4c0 2.2 1.8 4 4 4 2.2 0 4-1.8 4-4 0-2.2-1.8-4-4-4-2.2 0-3.9 1.8-4 4zm8.9-24.1l1.3 0.9 0.3-1.6c2.7-15.2-15.8-15.2-13.1 0l0.3 1.6 1.3-0.9c0.7-0.5 1.3-1 1.9-1.5 0.4 1.9 1.2 3.6 2.2 5.3l0.9 1.4 0.9-1.4c1.1-1.7 1.8-3.4 2.2-5.3q0.9 0.7 1.8 1.5zm-4.8 109.2c0.7-0.4 1.5-19.4 2.3-77.9h-4.7c0.8 59.2 1.6 78.3 2.4 77.9zm-0.1-170.4c0.5 3.3-1.6 4.9-3.6 7.9 2 3.4 4.5 4.9 3.6 7.9-1.8-2.9-4-5.5-6.4-7.9 2.5-2.4 4.6-5 6.4-7.9zm1.1-8.1l1.4-21.5h-4.8l1.4 21.5zm-5.1-61.4c0 2.2 1.8 4 4 4 2.2 0 4-1.8 4-4 0-2.2-1.8-4-4-4-2.2 0-3.9 1.8-4 4zm-0.8 24.2l-1.3-0.9-0.3 1.6c-2.7 15.2 15.8 15.2 13.1 0l-0.3-1.6-1.3 0.9c-0.7 0.5-1.3 1-1.9 1.5-0.4-1.9-1.2-3.6-2.2-5.3l-0.9-1.4-0.9 1.4c-1.1 1.7-1.8 3.4-2.2 5.3q-0.9-0.9-1.8-1.5z"/>
	<path id="Layer" fill-rule="evenodd" class="s0" d="m1238.7 30.3h32.9v8.3h-12.7c-11 0-18.8 9.3-20.1 19v316c0 10.7 8.2 21.9 20.3 21.9h12.7v8.3h-127.8v-8.3h11.8c11.6 0 25.1-10.4 25.1-21.9v-313h-0.2c0-11.5-13.5-21.9-25.1-21.9h-11.8v-8.3h94.9zm-27.4 257.1c3.8-2.3 5.4-5.9 4.7-10.6l-0.2-1.5-1.3 0.8c-2.4 1.4-4 3.2-4.9 5.4l-0.1-0.3-0.4-0.8-1-1.5-1.8-1.8-1.5-1-1.3-0.8-0.2 1.5-0.1 0.5v3.2l0.5 2 0.8 1.6 0.4 0.6 2.1 2.1 0.4 0.3 0.8 0.4c1.3 0.7 2.2 0.7 3.1-0.1zm-3.3-140.4l-0.8 0.4-2.1 2.1-0.4 0.6-0.6 1.2-0.6 2.4v3.2l0.1 0.5 0.2 1.5 1.3-0.8 1.5-1 1.5-1.5 1.2-1.8 0.4-0.8 0.1-0.3c1 2.2 2.5 4 4.9 5.4l1.3 0.8 0.2-1.5c0.7-4.7-0.8-8.3-4.7-10.6-1.2-0.7-2.1-0.7-3.3 0zm12.4 70.2l-0.9-0.8c-3.5-3.2-6.4-6.9-8.6-11l-0.9-1.7-0.9 1.7c-2.2 4.2-5.1 7.8-8.6 11l-0.9 0.8 0.9 0.8c3.5 3.2 6.4 6.9 8.6 11l0.9 1.7 0.9-1.7c2.2-4.2 5.1-7.8 8.6-11zm-10.6-162.4c-0.7-1-1.5 18.1-2.3 77.9h4.7c-0.8-57.9-1.6-77-2.4-77.9zm-0.9 178.4l-1.4 21.5h4.8l-1.4-21.5zm-3 61.4c0 2.2 1.8 4 4 4 2.2 0 4-1.8 4-4 0-2.2-1.8-4-4-4-2.2 0-4 1.8-4 4zm8.8-24.1l1.3 0.9 0.3-1.6c2.7-15.2-15.8-15.2-13.1 0l0.3 1.6 1.3-0.9c0.7-0.5 1.3-1 1.9-1.5 0.4 1.9 1.2 3.6 2.2 5.3l0.9 1.4 0.9-1.4c1.1-1.7 1.8-3.4 2.2-5.3 0.6 0.5 1.3 1 1.8 1.5zm-4.7 109.2c0.7-0.4 1.5-19.4 2.3-77.9h-4.7c0.8 59.2 1.5 78.3 2.4 77.9zm-0.1-170.4c0.5 3.3-1.7 4.9-3.6 7.9 2 3.4 4.5 4.9 3.6 7.9-1.8-2.9-4-5.5-6.4-7.9 2.4-2.4 4.6-5 6.4-7.9zm1-8.1l1.4-21.5h-4.8l1.4 21.5zm-5-61.4c0 2.2 1.8 4 4 4 2.2 0 4-1.8 4-4 0-2.2-1.8-4-4-4-2.2 0-4 1.8-4 4zm-0.8 24.2l-1.3-0.9-0.3 1.6c-2.7 15.2 15.8 15.2 13.1 0l-0.3-1.6-1.3 0.9c-0.7 0.5-1.3 1-1.9 1.5-0.4-1.9-1.2-3.6-2.2-5.3l-0.9-1.4-0.9 1.4c-1.1 1.7-1.8 3.4-2.2 5.3-0.6-0.6-1.3-1.1-1.8-1.5z"/>
	<path id="Layer" fill-rule="evenodd" class="s0" d="m1087.6 22.5c5.8 0.2 11.7 0.3 17.5 0.5 12.1 62.9-19.1 85.6-10 124.4-27.3-7-38.2-17.4-42.2-31.6-7.1-25.4 7.9-54.1-10.4-73.1-22-22.9-67.6-5.7-66.8 42.7 1.2 11.9 5.3 22.3 11.1 31.8 24.1 39.2 92.5 89 124.7 130.1 13.2 16.8 23.1 35.7 23.8 57.1 1.6 45.3-34.1 86.1-75.5 99.9-47.2 15.7-105.5 5.3-137.9-28.4-42-48.7 11-102.1-24.8-122.5 25.4-24.4 83.6-16 78.9 34-1.7 18.8-20.5 38.9-25.6 59.2-12.6 50.2 77.1 62.5 110.1 39.9 21.5-14.7 29.1-41.8 18.5-71.6-17-47.6-140.2-135.5-152.6-194.1-2.6-12.3-2.9-23.7-0.8-34.1 11-54.6 87.8-79.5 134.9-57.4 12.9 6 22.6 15.5 29.4 28.1-0.7-11.8-1.5-23.4-2.3-34.9zm-56.2 185.7c-1.6 1.5-1.7 4-0.2 5.6 1.5 1.6 4 1.7 5.6 0.2 1.6-1.5 1.7-4 0.2-5.6-1.4-1.5-4-1.7-5.6-0.2zm-95.4 49.7c-3.8-3.4-5.4-3.4-1.5 1.1 11.8 13.6 2.1 35.7-2.4 50.8-2.1 7.1-3.7 14.7-4 22.2-0.3 6.1 0.6 6.9 1.5 0.2 3.4-24 28.2-54.9 6.4-74.3zm142.6-131c1.1 3.2 2.6 5.2 3 4.6 0.3-0.4-0.6-2.3-1.3-5.1-1.8-6.8-2.2-14.1-2.2-21.1-0.1-12.5 2.1-34-6.1-44.1-3.8-4.6-4.5-4.3-1.8 1.2 5.5 11.1 3.5 32.5 4.3 43.9 0.5 7 1.9 14 4.1 20.6zm-126.1-38c0-6.1-1-5.8-1.4-0.1-2.8 45 45.3 91.7 75.9 118l0.7 0.6 3.4-3.2-0.9-0.8c-30.9-25-77.7-70.9-77.7-114.5zm152 252.8c-2 8.2-0.8 8.1 1.5 0.7 15-48.2-32.2-98-64.6-126.8l-0.7-0.6-3.4 3.1 0.8 0.8c31 27.8 77.6 76.1 66.4 122.8z"/>
	<path id="Layer" fill-rule="evenodd" class="s0" d="m1327.9 30.1h183.6c42.7 45.5-30.9 73.3-7.5 115-47.2-2.2-26.4-34-25.2-64.3 0.5-13.2-2.6-26.6-16.7-38h-80.1l0.1 175.8 6.2-5.3c34.3-29.6 85.2-52.2 115.2-3.6l-8 12.9-3.6-5.8c-24.9-40.3-67.3-16.9-94.8 6.8l-15.1 13 0.1 154.5h84c20.1-16.3 12.9-38.8 11.9-64-1-26.3 4.5-55.2 40.2-66.6-38.5 42.1 46.9 79.3-2.7 143.3h-224.5v-8.3h11.8c11.6 0 25.1-10.4 25.1-21.9v-313h-0.2c0-11.5-13.5-21.9-25.1-21.9h-11.8v-8.3h37.1zm167.3 268.4c-1 9.9 0 20.4 1.9 30.1 2.6 13 9.3 33.4 6 47.3-1.6 6.8-0.7 6.7 2 0.7 6.2-14.2-1-35.9-4.3-49.6-2.2-9-4.3-18.9-4.1-28.3 0.1-5.3-1.1-5.3-1.5-0.2zm-138.6-11.1c3.8-2.3 5.4-5.9 4.7-10.6l-0.2-1.5-1.3 0.8c-2.4 1.4-4 3.2-4.9 5.4l-0.1-0.3-0.4-0.8-1-1.5-1.8-1.8-1.5-1-1.3-0.8-0.2 1.5-0.1 0.5v3.2l0.5 2 0.8 1.6 0.4 0.6 2.4 2.4 0.8 0.4c1.2 0.7 2.1 0.7 3.2-0.1zm-3.5-140.3l-0.8 0.4-2.1 2.1-0.4 0.6-0.8 1.6-0.5 2v3.1l0.1 0.5 0.2 1.5 1.3-0.8 1.5-1 1.8-1.8 1-1.5 0.4-0.8 0.1-0.3c1 2.2 2.5 4 4.9 5.4l1.3 0.8 0.2-1.5c0.7-4.7-0.8-8.3-4.7-10.6-1.2-0.7-2.1-0.7-3.3 0zm12.3 70.1l-0.8-0.8c-3.5-3.2-6.4-6.9-8.6-11l-0.9-1.7-0.9 1.7c-2.2 4.2-5.1 7.8-8.6 11l-0.9 0.8 0.9 0.8c3.5 3.2 6.4 6.9 8.6 11l0.9 1.7 0.9-1.7c2.2-4.2 5.1-7.8 8.6-11zm-10.5-162.4c-0.7-1-1.5 18.1-2.3 77.9h4.7c-0.8-57.9-1.5-77-2.4-77.9zm-0.9 178.4l-1.4 21.5h4.8l-1.4-21.5zm-3 61.4c0 2.2 1.8 4 4 4 2.2 0 4-1.8 4-4 0-2.2-1.8-4-4-4-2.2 0-4 1.8-4 4zm9-24.1l1.3 0.9 0.3-1.6c2.7-15.2-15.8-15.2-13.1 0l0.3 1.6 1.3-0.9c0.7-0.5 1.3-1 1.9-1.5 0.3 1.9 1.1 3.6 2.1 5.3l0.9 1.4 0.9-1.4c1-1.7 1.7-3.4 2.1-5.3 0.6 0.5 1.3 1 2 1.5zm-4.9 109.2c0.7-0.4 1.5-19.4 2.3-77.9h-4.7c0.8 59.3 1.6 78.3 2.4 77.9zm-0.1-170.4c0.5 3.3-1.6 4.9-3.6 7.9 2 3.3 4.5 4.9 3.6 7.9-1.8-2.9-4-5.5-6.4-7.9 2.4-2.4 4.6-5 6.4-7.9zm1-8l1.4-21.5h-4.8l1.4 21.5zm-5-61.5c0 2.2 1.8 4 4 4 2.2 0 4-1.8 4-4 0-2.2-1.8-4-4-4-2.2 0-4 1.9-4 4zm-1 24.2l-1.3-0.9-0.3 1.6c-2.7 15.2 15.8 15.2 13.1 0l-0.3-1.6-1.3 0.9c-0.7 0.5-1.3 1-1.9 1.5-0.3-1.9-1.1-3.6-2.1-5.3l-0.9-1.4-0.9 1.4c-1 1.7-1.7 3.4-2.1 5.3-0.6-0.6-1.3-1.1-2-1.5zm146.7-106.2c2 12.2-5.5 31.8-7.9 42.9-1.4 6.6-1.9 13.5-1.7 20.2 0.1 5.7 1.5 6.1 1.7-0.1 0.3-6.8 1.9-13.6 3.7-20.1 3.3-12 11.4-32.1 6.3-44.1-2.9-6.9-3-4.4-2.1 1.2z"/>
	<path id="Layer" fill-rule="evenodd" class="s0" d="m1543.9 30.4h84l130.1 254.2v-223.9h-0.2c0-11.5-13.5-21.9-25.1-21.9h-22.3v-8.3h94.4v8.3h-12.7c-11 0-18.8 9.3-20.1 19v346.2h-14l-163-318.2v287.8c0 10.7 8.2 21.9 20.3 21.9h12.7v8.3h-83.9v-8.3h11.8c11.6 0 25.1-10.4 25.1-21.9v-313h-0.2c0-11.5-13.5-21.9-25.1-21.9h-11.8zm167.2 219c2.4-3.8 2.1-7.7-0.6-11.6l-0.9-1.3-0.8 1.3c-1.5 2.3-2.1 4.6-1.9 7l-0.2-0.2-1.8-1.2-0.8-0.4-3.2-0.8h-0.8l-1.5-0.1 0.5 1.5 0.2 0.5 1.4 2.8 2.1 2.1 0.9 0.6 1.2 0.6 2.4 0.6h0.8c1.4 0.1 2.2-0.3 3-1.4zm-66.9-123.3l-0.8 1.6-0.6 2.4v2l0.6 2.4 1 2 0.6 0.8 0.9 1.3 0.8-1.3 0.4-0.6 0.6-1.2 0.8-3.2v-2.3c1.8 1.5 4.1 2.4 6.8 2.6l1.5 0.1-0.5-1.5c-1.5-4.5-4.5-7-9-7.3-1.4-0.1-2.2 0.3-3 1.5zm42.8 56.6l-1.1-0.3c-4.6-1.2-8.8-3.1-12.7-5.8l-1.6-1.1v1.9c-0.1 4.7-1 9.3-2.7 13.7l-0.4 1.1 1.1 0.3c4.6 1.2 8.8 3.1 12.7 5.8l1.6 1.1v-1.9c0.1-4.7 1-9.3 2.7-13.7zm-76.5-128c-1.2-0.5 0.5 4.7 26.9 58.4l4.1-2.1c-27-51.2-30.1-55.7-31-56.3zm73.6 147.4l8.5 19.8 4.2-2.2-11-18.5zm25.2 56.1c1 2 3.4 2.8 5.4 1.8 1.9-1 2.7-3.4 1.7-5.4-1-2-3.4-2.8-5.4-1.8-2 1-2.7 3.5-1.7 5.4zm-2.9-25.5l1.6 0.2-0.5-1.5c-4.5-14.8-21-6.4-11.7 5.9l1 1.3 0.8-1.4c0.4-0.7 0.7-1.5 1-2.2 1.2 1.5 2.6 2.7 4.3 3.7l1.4 0.9 0.1-1.7c0.2-1.9 0-3.9-0.5-5.7 0.8 0.2 1.5 0.4 2.5 0.5zm44.9 99.6c0.5-0.7-7.4-18-33.2-70.5l-4.1 2.1c27.6 52.4 36.9 69 37.3 68.4zm-77.2-151.9c1.9 2.8 0.7 5.1 0.3 8.7 3.3 2.1 6.2 2.3 6.8 5.4-2.9-1.8-6.1-3.1-9.3-4.2 1.2-3.2 1.9-6.5 2.2-9.9zm-2.8-7.7l-8.5-19.8-4.2 2.2 11 18.5zm-32.2-52.4c1 2 3.4 2.8 5.4 1.8 1.9-1 2.7-3.4 1.7-5.4-1-2-3.4-2.8-5.4-1.8-2 1-2.7 3.4-1.7 5.4zm9.9 21.8l-1.6-0.2 0.5 1.6c4.5 14.8 21 6.4 11.7-5.9l-1-1.3-0.8 1.4c-0.4 0.7-0.7 1.5-1 2.2-1.2-1.5-2.6-2.7-4.3-3.7l-1.4-0.9-0.1 1.7c-0.2 1.9 0 3.9 0.5 5.7-0.7-0.2-1.5-0.4-2.5-0.6z"/>
</svg>